<?xml version="1.0" encoding="utf-8"?>
<svg xmlns="http://www.w3.org/2000/svg" xmlns:svg="http://www.w3.org/2000/svg" version="1.1" viewBox="0 0 1400 340">
	<title>The titlepage for the Standard Ebooks edition of Villette, by Charlotte Brontë</title>
	<g aria-label="VILLETTE">
		<path d="m 497.7076,130 h 13.84795 L 543.92982,52.807016 H 524.09356 L 504.63158,103.52047 485.16959,52.807016 h -19.83626 z"/>
		<path d="M 569.44006,52.807016 H 551.84941 V 130 h 17.59065 z"/>
		<path d="M 603.31432,52.807016 H 585.72368 V 130 h 44.16374 v -15.4386 h -26.5731 z"/>
		<path d="M 661.12866,52.807016 H 643.53801 V 130 h 44.16375 v -15.4386 h -26.5731 z"/>
		<path d="M 745.51609,52.807016 H 701.35234 V 130 h 44.16375 v -15.4386 h -26.5731 V 99.029239 h 25.45029 V 83.590642 H 718.94299 V 68.245613 h 26.5731 z"/>
		<path d="m 755.76315,68.245613 h 18.33918 V 130 h 17.59065 V 68.245613 h 18.33918 V 52.807016 h -54.26901 z"/>
		<path d="m 817.7807,68.245613 h 18.33918 V 130 h 17.59064 V 68.245613 h 18.33919 V 52.807016 H 817.7807 Z"/>
		<path d="M 927.54825,52.807016 H 883.38451 V 130 h 44.16374 v -15.4386 h -26.5731 V 99.029239 h 25.45029 V 83.590642 H 900.97515 V 68.245613 h 26.5731 z"/>
	</g>
	<g aria-label="CHARLOTTE BRONTË">
		<path d="m 322.17489,278.07018 c -13.26315,0 -19.08772,-9.26316 -19.08772,-17.05264 0,-7.71929 5.82457,-16.98245 19.08772,-16.98245 6.73685,0 11.36842,3.57895 11.36842,3.57895 l 5.61404,-11.22807 c 0,0 -6.45614,-5.33334 -19.01754,-5.33334 -16.42106,0 -31.36842,13.47369 -31.36842,30.10527 0,16.5614 15.01754,29.89473 31.36842,29.89473 12.5614,0 19.01754,-5.33333 19.01754,-5.33333 l -5.61404,-11.22807 c 0,0 -4.63157,3.57895 -11.36842,3.57895 z"/>
		<path d="m 362.46656,266.77193 h 18.66667 V 290 h 13.19298 v -57.89474 h -13.19298 v 23.08772 H 362.46656 V 232.10526 H 349.27358 V 290 h 13.19298 z"/>
		<path d="M 437.13103,232.10526 H 424.92051 L 401.55209,290 h 14.17544 l 4.2807,-11.57895 h 22.03509 L 446.32402,290 h 14.17544 z m 0.42106,34.73685 H 424.49946 L 430.9556,250 h 0.14035 z"/>
		<path d="M 467.68915,232.10526 V 290 h 13.19298 V 267.12281 L 498.56634,290 h 16.77193 l -19.92982,-23.92982 c 7.08772,-2.24562 11.85965,-8.07018 11.85965,-16.77193 0,-11.36842 -8.14035,-17.19299 -18.8772,-17.19299 z m 13.19298,25.68421 v -15.15789 h 1.54386 c 4.98246,0 10.94737,0.35088 10.94737,7.57895 0,7.22807 -5.96491,7.57894 -10.94737,7.57894 z"/>
		<path d="M 536.18366,232.10526 H 522.99068 V 290 h 33.12281 v -11.57895 h -19.92983 z"/>
		<path d="m 565.00494,261.01754 c 0,16.91228 12.07017,30.03509 29.19298,30.03509 16.63158,0 29.12281,-13.12281 29.12281,-30.03509 0,-16.91228 -13.05264,-29.96491 -29.12281,-29.96491 -15.92983,0 -29.19298,13.05263 -29.19298,29.96491 z m 14.24561,0 c 0,-8.63157 4.77193,-17.26315 14.94737,-17.26315 10.24561,0 14.87719,8.63158 14.87719,17.26315 0,8.63158 -4.35088,17.26316 -14.87719,17.26316 -10.80702,0 -14.94737,-8.63158 -14.94737,-17.26316 z"/>
		<path d="m 628.2999,243.68421 h 13.75439 V 290 h 13.19298 v -46.31579 h 13.75438 V 232.10526 H 628.2999 Z"/>
		<path d="m 676.06305,243.68421 h 13.75439 V 290 h 13.19298 v -46.31579 h 13.75439 v -11.57895 h -40.70176 z"/>
		<path d="m 759.63869,232.10526 h -33.1228 V 290 h 33.1228 v -11.57895 h -19.92982 v -11.64912 h 19.08772 v -11.57895 h -19.08772 v -11.50877 h 19.92982 z"/>
		<path d="M 796.41173,232.10526 V 290 h 21.96491 c 12,0 18.94737,-6.59649 18.94737,-16.14035 0,-9.33333 -5.12281,-13.33333 -12.35088,-14.59649 4.91228,-2.52632 7.22807,-7.08772 7.22807,-12.42105 0,-11.01755 -7.85965,-14.73685 -17.82456,-14.73685 z m 13.19298,22.66667 V 242.2807 h 1.05263 c 5.75439,0 8.77193,1.75439 8.77193,5.89474 0,4.8421 -3.08772,6.59649 -8.77193,6.59649 z m 0,25.05263 v -13.68421 h 4.14035 c 6.24562,0 9.68421,1.89474 9.68421,7.22807 0,4.5614 -3.43859,6.45614 -9.68421,6.45614 z"/>
		<path d="M 848.14968,232.10526 V 290 h 13.19298 V 267.12281 L 879.02687,290 h 16.77193 l -19.92983,-23.92982 c 7.08772,-2.24562 11.85965,-8.07018 11.85965,-16.77193 0,-11.36842 -8.14035,-17.19299 -18.87719,-17.19299 z m 13.19298,25.68421 v -15.15789 h 1.54386 c 4.98245,0 10.94737,0.35088 10.94737,7.57895 0,7.22807 -5.96492,7.57894 -10.94737,7.57894 z"/>
		<path d="m 900.8547,261.01754 c 0,16.91228 12.07017,30.03509 29.19298,30.03509 16.63158,0 29.12281,-13.12281 29.12281,-30.03509 0,-16.91228 -13.05263,-29.96491 -29.12281,-29.96491 -15.92982,0 -29.19298,13.05263 -29.19298,29.96491 z m 14.24561,0 c 0,-8.63157 4.77193,-17.26315 14.94737,-17.26315 10.24561,0 14.87719,8.63158 14.87719,17.26315 0,8.63158 -4.35087,17.26316 -14.87719,17.26316 -10.80702,0 -14.94737,-8.63158 -14.94737,-17.26316 z"/>
		<path d="m 983.18476,254.07018 h 0.14035 L 1006.3427,290 h 13.1929 v -57.89474 h -13.1929 v 35.92983 h -0.1404 L 983.18476,232.10526 H 969.99178 V 290 h 13.19298 z"/>
		<path d="m 1025.8931,243.68421 h 13.7544 V 290 h 13.1929 v -46.31579 h 13.7544 v -11.57895 h -40.7017 z"/>
		<path d="m 1084.1354,212.59649 c -3.579,0 -6.4562,2.87719 -6.4562,6.45614 0,3.57895 2.8772,6.45614 6.4562,6.45614 3.5789,0 6.4561,-2.87719 6.4561,-6.45614 0,-3.57895 -2.8772,-6.45614 -6.4561,-6.45614 z m 16.6316,0 c -3.579,0 -6.4562,2.87719 -6.4562,6.45614 0,3.57895 2.8772,6.45614 6.4562,6.45614 3.5789,0 6.4561,-2.87719 6.4561,-6.45614 0,-3.57895 -2.8772,-6.45614 -6.4561,-6.45614 z m 8.7017,19.50877 h -33.1228 V 290 h 33.1228 v -11.57895 h -19.9298 v -11.64912 h 19.0877 v -11.57895 h -19.0877 v -11.50877 h 19.9298 z"/>
	</g>
</svg>
